<svg class="canvas" viewBox="0 0 1920 1080" preserveAspectRatio="xMaxYMid slice" xmlns="http://www.w3.org/2000/svg" version="1.1" xmlns:xlink="http://www.w3.org/1999/xlink" xmlns:svgjs="http://svgjs.dev/svgjs"><rect width="1920" height="1080" fill="hsl(238, 65%, 15%)"></rect><defs><linearGradient x1="0.5" y1="0" x2="0" y2="1" id="SvgjsLinearGradient1007"><stop stop-color="#28538a" offset="0"></stop><stop stop-color="#0e0614" offset="0.1"></stop></linearGradient><linearGradient x1="0.5" y1="0" x2="0" y2="1" id="SvgjsLinearGradient1008"><stop stop-color="#283f8a" offset="0"></stop><stop stop-color="#100614" offset="0.22857142857142856"></stop></linearGradient><linearGradient x1="0.5" y1="0" x2="0" y2="1" id="SvgjsLinearGradient1009"><stop stop-color="#282b8a" offset="0"></stop><stop stop-color="#130614" offset="0.3571428571428571"></stop></linearGradient><linearGradient x1="0.5" y1="0" x2="0" y2="1" id="SvgjsLinearGradient1010"><stop stop-color="#c0d5f2" offset="0"></stop><stop stop-color="#9642d7" offset="0.48571428571428565"></stop></linearGradient><linearGradient x1="0.5" y1="0" x2="0" y2="1" id="SvgjsLinearGradient1011"><stop stop-color="#c0e9f2" offset="0"></stop><stop stop-color="#5b42d7" offset="0.6142857142857142"></stop></linearGradient><linearGradient x1="0.5" y1="0" x2="0" y2="1" id="SvgjsLinearGradient1012"><stop stop-color="#c0e9f2" offset="0"></stop><stop stop-color="#5b42d7" offset="0.7428571428571429"></stop></linearGradient><linearGradient x1="0.5" y1="0" x2="0" y2="1" id="SvgjsLinearGradient1013"><stop stop-color="#c0c2f2" offset="0"></stop><stop stop-color="#d242d7" offset="0.8714285714285713"></stop></linearGradient></defs><path d="M0,-579.7625518351954C39.19703439270143,-565.6982407761717,153.62031672348044,-512.5869551992049,235.18220635620858,-495.3766854810533C316.7440959889367,-478.16641576290175,384.4020719793518,-502.85753683486263,489.37133779636883,-476.50093352628596C594.3406036133858,-450.1443302177093,766.783097523883,-373.635812332387,864.9978012583108,-337.23706562959325C963.2125049927386,-300.8383189267995,998.7880475456673,-274.2434717864751,1078.6595602029356,-258.10845330952355C1158.531072860204,-241.97343483257202,1250.587065779684,-266.7595244017534,1344.226877201921,-240.426954767884C1437.866688624158,-214.09438513401457,1544.5362416033438,-133.55710266175507,1640.498428736357,-100.11303550630696C1736.4606158693703,-66.66896835085885,1873.4164047893928,-49.82096578038067,1920,-39.76255183519541L 1920 1080 L 0 1080 Z" fill="url(#SvgjsLinearGradient1007)"></path><path d="M0,-361.4773738287622C58.43497617019068,-344.7431618844798,215.51783913686458,-289.47923668670694,350.6098570211441,-261.0721021630677C485.70187490542355,-232.6649676394285,669.4584014131766,-230.13751261807383,810.5521073056769,-191.03456668692698C951.6458131981773,-151.93162075578013,1081.5432196910513,-65.7323567431715,1197.172092376146,-26.454426576186613C1312.800965061241,12.823503590798275,1383.8540254789364,8.089219809459223,1504.3253434162455,44.63301431498235C1624.7966613535546,81.17680882050547,1850.7208905693742,168.11245276662382,1920,192.80834045695212L 1920 1080 L 0 1080 Z" fill="url(#SvgjsLinearGradient1008)"></path><path d="M0,-319.9493419573373C58.08492487534136,-311.40217566301783,223.8689720134053,-314.09717377549805,348.50954925204815,-268.6663441914204C473.150126490691,-223.23551460734282,609.670942631385,-102.26882587301283,747.8434634318571,-47.36436445287166C886.0159842323293,7.5400969672695055,1038.3586288005754,24.024129562978146,1177.544674054881,60.76042432942659C1316.7307193091865,97.49671909587504,1459.2171806335036,141.74312709837488,1582.9597349576902,173.053404145819C1706.7022892818768,204.36368119326312,1863.8266224929484,236.02730620271262,1920,248.62208661409133L 1920 1080 L 0 1080 Z" fill="url(#SvgjsLinearGradient1009)"></path><path d="M0,-114.33669110067346C74.23735753362827,-91.7811724701007,285.28081492138693,-26.480770920531633,445.4241452017696,20.99642068276313C605.5674754821523,68.47361228605789,800.8946663340822,119.98253167505877,960.8599816822959,170.52645851909514C1120.8252970305095,221.07038536313152,1245.3593675714342,274.59431620741896,1405.2160372910516,324.25998174698134C1565.072707010669,373.9256472865437,1834.2026728818419,444.47704008822143,1920,468.5204517564694L 1920 1080 L 0 1080 Z" fill="url(#SvgjsLinearGradient1010)"></path><path d="M0,8.598562696281206C47.03693510681035,23.37924765417062,167.34334956550936,62.713303881644755,282.2216106408621,97.28267244361768C397.0998717162148,131.85204100559062,575.6169592349804,174.41479995718785,689.2695664521164,216.01477406811875C802.9221736692523,257.6147481790496,868.8625234714234,320.7893071919814,964.1372539436777,346.88251710920304C1059.411984415932,372.9757270264247,1147.2178355708547,351.190653866034,1260.9179492856424,372.57403357144875C1374.61806300043,393.9574132768635,1536.490927780011,436.3215642970767,1646.3379362324038,475.18279534169164C1756.1849446847966,514.0440263863065,1874.3896560387338,583.9816490895639,1920,605.7414198391384L 1920 1080 L 0 1080 Z" fill="url(#SvgjsLinearGradient1011)"></path><path d="M0,102.37986141024192C74.0908531906514,120.60080031693228,278.41180809701706,155.47999153852788,444.5451191439084,211.70549485038413C610.6784301907996,267.93099816224037,839.2183237492982,376.7080612014871,996.7998662813479,439.73288128137943C1154.3814088133977,502.75770136127176,1236.1676853830984,544.1751567368323,1390.034374336207,589.8544153297379C1543.9010632893157,635.5336739226435,1831.6723957227011,693.1494299206341,1920,713.8084328388134L 1920 1080 L 0 1080 Z" fill="url(#SvgjsLinearGradient1012)"></path><path d="M0,192.10727798524664C78.54535390343342,223.6336193074731,308.6533459790577,330.04386851696626,471.27212342060056,381.2653259186055C633.8909008621434,432.4867833202448,816.0638320381084,446.57077862385046,975.712664649257,499.43602239508215C1135.3614972604057,552.3012661663138,1271.783896529035,645.3925316619205,1429.1651190874923,698.4567885459956C1586.5463416459495,751.5210454300706,1838.194186514582,797.9274345072762,1920,817.8215636995324L 1920 1080 L 0 1080 Z" fill="url(#SvgjsLinearGradient1013)"></path></svg>