<svg class="canvas" viewBox="0 0 1920 1080" preserveAspectRatio="xMaxYMid slice" xmlns="http://www.w3.org/2000/svg" version="1.1" xmlns:xlink="http://www.w3.org/1999/xlink" xmlns:svgjs="http://svgjs.dev/svgjs"><rect width="1920" height="1080" fill="hsl(233, 65%, 15%)"></rect><defs><linearGradient x1="0.5" y1="0" x2="0" y2="1" id="SvgjsLinearGradient1343"><stop stop-color="#28478a" offset="0"></stop><stop stop-color="#0f0614" offset="0.1"></stop></linearGradient><linearGradient x1="0.5" y1="0" x2="0" y2="1" id="SvgjsLinearGradient1344"><stop stop-color="#28348a" offset="0"></stop><stop stop-color="#120614" offset="0.22857142857142856"></stop></linearGradient><linearGradient x1="0.5" y1="0" x2="0" y2="1" id="SvgjsLinearGradient1345"><stop stop-color="#28478a" offset="0"></stop><stop stop-color="#0f0614" offset="0.3571428571428571"></stop></linearGradient><linearGradient x1="0.5" y1="0" x2="0" y2="1" id="SvgjsLinearGradient1346"><stop stop-color="#cec0f2" offset="0"></stop><stop stop-color="#d742ad" offset="0.48571428571428565"></stop></linearGradient><linearGradient x1="0.5" y1="0" x2="0" y2="1" id="SvgjsLinearGradient1347"><stop stop-color="#c0c6f2" offset="0"></stop><stop stop-color="#c542d7" offset="0.6142857142857142"></stop></linearGradient><linearGradient x1="0.5" y1="0" x2="0" y2="1" id="SvgjsLinearGradient1348"><stop stop-color="#c0d0f2" offset="0"></stop><stop stop-color="#a842d7" offset="0.7428571428571429"></stop></linearGradient><linearGradient x1="0.5" y1="0" x2="0" y2="1" id="SvgjsLinearGradient1349"><stop stop-color="#c0daf2" offset="0"></stop><stop stop-color="#8a42d7" offset="0.8714285714285713"></stop></linearGradient></defs><path d="M0,-514.4169245186415C35.81649206159706,-508.66103706504623,137.61741398508624,-507.33201313385166,214.89895236958236,-479.88159979706995C292.1804907540785,-452.43118646028825,372.7326720939974,-374.84723609096545,463.6892303069767,-349.71444449795115C554.645788519956,-324.58165290493685,687.0864542244537,-341.54919505721074,760.6383016474581,-329.084850238984C834.1901490704624,-316.6205054207573,832.0771193784504,-306.2263663319625,905.0003148450028,-274.9283755885909C977.9235103115551,-243.6303848452193,1099.8773177639155,-176.1372111508386,1198.1774744467723,-141.29690577875454C1296.4776311296291,-106.45660040667047,1408.5048877990412,-92.02453767768812,1494.801254942144,-65.88654335608659C1581.0976220852467,-39.748549034485066,1645.089219795746,0.2861236779471099,1715.9556773053887,15.531060150854628C1786.8221348150314,30.775996623762147,1885.9926128842314,23.907739592941205,1920,25.58307548135852L 1920 1080 L 0 1080 Z" fill="url(#SvgjsLinearGradient1343)"></path><path d="M0,-423.3243073960268C49.3773099972988,-410.1033679729218,205.46951271549142,-368.60241485291914,296.2638599837928,-343.9986708573967C387.05820725209423,-319.39492686187424,452.85717981860404,-309.0926843018475,544.7660836098083,-275.7018434228922C636.6749874010127,-242.31100254393687,752.4389354028118,-175.06623756573043,847.7172827310186,-143.65362558366488C942.9956300592254,-112.2410136015993,1021.6715276034109,-105.6517750950022,1116.4361675790492,-87.22617153049876C1211.2008075546873,-68.80056796599533,1333.6777298531003,-50.30179202381928,1416.305122584848,-33.10000419664428C1498.9325153165958,-15.898216369469274,1528.251377733677,-11.359013081837364,1612.2005239695357,15.98455543255126C1696.1496702053944,43.32812394693988,1868.700087328256,111.7985983134981,1920,130.96140688968748L 1920 1080 L 0 1080 Z" fill="url(#SvgjsLinearGradient1344)"></path><path d="M0,-296.57110587442105C50.03371081122791,-282.4412562838287,226.2005635077566,-234.53479403257515,300.2022648673675,-211.79200833086685C374.20396622697837,-189.04922262915855,377.30519353860115,-178.65860905742207,444.01020815766515,-160.11439166417125C510.71522277672915,-141.57017427092043,618.2654991058159,-133.81764069300735,700.4323525817515,-100.52670397136191C782.5992060576871,-67.23576724971647,857.1518974663558,15.411863602416744,937.0113290132789,39.63122866570143C1016.870760560202,63.85059372898611,1095.7967046393376,20.058766780492512,1179.5889418632905,44.7894864083462C1263.3811790872435,69.52020603619988,1346.2458855828788,168.61653277957,1439.7647523569967,188.01554643282356C1533.2836191311146,207.4145600860771,1660.6629345674974,147.1861056171702,1740.702142507998,161.18356832786753C1820.7413504484985,175.18103103856487,1890.117023751333,253.53086363548422,1920,272.00032269700756L 1920 1080 L 0 1080 Z" fill="url(#SvgjsLinearGradient1345)"></path><path d="M0,-113.00614528010209C77.52978246806579,-84.48605332068772,302.20120042188495,7.840281780955543,465.17869480839477,58.11440647638413C628.1561891949045,108.38853117181273,817.0231798263418,137.33910447522848,977.8649663190589,188.6386028924695C1138.706752811776,239.9381013097105,1273.2069081512072,319.0426645324017,1430.2294137646975,365.9113969798303C1587.2519193781877,412.7801294272588,1838.371568960783,452.52773081083905,1920,469.8509975770408L 1920 1080 L 0 1080 Z" fill="url(#SvgjsLinearGradient1346)"></path><path d="M0,15.475186727881663C40.53796583305769,21.28399623401867,164.60898140123072,18.528531947569693,243.22779499834616,50.32804376470371C321.8466085954616,82.12755558183773,386.408543379293,172.5254739553852,471.7128815826926,206.27225763068574C557.0172197860921,240.0190413059863,664.6852800926799,232.44996100866265,755.0538242187437,252.80874581650698C845.4223683448074,273.16753062435134,946.010244468137,296.3415419497931,1013.9241463390752,328.42496647775175C1081.8380482100133,360.5083910057104,1089.9955679315085,420.84147621210093,1162.5372354443725,445.3092929842587C1235.0789029572366,469.7771097564165,1371.878019207034,455.2849751315438,1449.17415141626,475.23186711069854C1526.470283625486,495.1787590898533,1547.843053935772,542.0929487325141,1626.3140286997289,564.9906448591875C1704.7850034636856,587.8883409858609,1871.0523381166215,604.6801440354803,1920,612.6180438707389L 1920 1080 L 0 1080 Z" fill="url(#SvgjsLinearGradient1347)"></path><path d="M0,142.02705482595513C55.9962193082136,163.476431166956,226.97394731116628,245.1867001803575,335.9773158492816,270.7233128719602C444.9806843873969,296.25992556356294,551.5916805325851,268.1570694727496,654.0202112286918,295.24673097557144C756.4487419247985,322.3363924783933,844.4033951219013,384.0804010052814,950.5485000259218,433.2612818888913C1056.6936049299425,482.4421627725012,1179.2818122642827,557.3986174498975,1290.890840652815,590.3320162772308C1402.4998690413474,623.265415104564,1515.3511437992513,603.6744065233418,1620.2026703571155,630.861674852891C1725.0541969149797,658.0489431824403,1870.0337783928526,733.0233010209206,1920,753.4556262545266L 1920 1080 L 0 1080 Z" fill="url(#SvgjsLinearGradient1348)"></path><path d="M0,208.20013733476665C73.42478525797634,241.7033735232054,280.5415471343134,363.01871857634984,440.54871154785803,409.2195544653992C600.5558759614026,455.42039035444856,796.7210825855543,447.25797641081635,960.0429864812678,485.40515266906294C1123.3648903769813,523.5523289273095,1260.487299335684,580.017733618214,1420.4801349221393,638.1026120148789C1580.4729705085947,696.1874904115438,1836.7466891536899,801.2791212100235,1920,833.9144230490524L 1920 1080 L 0 1080 Z" fill="url(#SvgjsLinearGradient1349)"></path></svg>