<svg class="canvas" viewBox="0 0 1920 1080" preserveAspectRatio="xMaxYMid slice" xmlns="http://www.w3.org/2000/svg" version="1.1" xmlns:xlink="http://www.w3.org/1999/xlink" xmlns:svgjs="http://svgjs.dev/svgjs"><rect width="1920" height="1080" fill="hsl(218, 65%, 15%)"></rect><defs><linearGradient x1="0.5" y1="0" x2="0" y2="1" id="SvgjsLinearGradient1532"><stop stop-color="#28398a" offset="0"></stop><stop stop-color="#110614" offset="0.1"></stop></linearGradient><linearGradient x1="0.5" y1="0" x2="0" y2="1" id="SvgjsLinearGradient1533"><stop stop-color="#28398a" offset="0"></stop><stop stop-color="#110614" offset="0.22857142857142856"></stop></linearGradient><linearGradient x1="0.5" y1="0" x2="0" y2="1" id="SvgjsLinearGradient1534"><stop stop-color="#28398a" offset="0"></stop><stop stop-color="#110614" offset="0.3571428571428571"></stop></linearGradient><linearGradient x1="0.5" y1="0" x2="0" y2="1" id="SvgjsLinearGradient1535"><stop stop-color="#c0f0f2" offset="0"></stop><stop stop-color="#4742d7" offset="0.48571428571428565"></stop></linearGradient><linearGradient x1="0.5" y1="0" x2="0" y2="1" id="SvgjsLinearGradient1536"><stop stop-color="#c0c8f2" offset="0"></stop><stop stop-color="#be42d7" offset="0.6142857142857142"></stop></linearGradient><linearGradient x1="0.5" y1="0" x2="0" y2="1" id="SvgjsLinearGradient1537"><stop stop-color="#c0d2f2" offset="0"></stop><stop stop-color="#a042d7" offset="0.7428571428571429"></stop></linearGradient><linearGradient x1="0.5" y1="0" x2="0" y2="1" id="SvgjsLinearGradient1538"><stop stop-color="#c0f0f2" offset="0"></stop><stop stop-color="#4742d7" offset="0.8714285714285713"></stop></linearGradient></defs><path d="M0,-582.8980187834632C42.35496035306708,-568.0672633974839,167.87082286415324,-510.24169694580644,254.12976211840245,-493.91348646758746C340.38870137265167,-477.5852759893685,436.62649254592526,-504.0063228880486,517.5536355254952,-484.9287559141492C598.4807785050651,-465.85118894024976,668.9235268609239,-408.011796325889,739.6926199958222,-379.44808462419087C810.4617131307205,-350.88437292249273,870.9869490722517,-341.96387255095203,942.1681943348848,-313.5464857039602C1013.3494395975179,-285.1290988569683,1087.2908330204912,-239.18918828174782,1166.780091571621,-208.94376354223976C1246.2693501227507,-178.6983388027317,1330.1781593826568,-146.30685467437996,1419.1037456416639,-132.07393726691183C1508.029331900671,-117.84101985944368,1616.8509000659415,-138.40891217800566,1700.3336091256642,-123.54625909743089C1783.816318185387,-108.68360601685612,1883.3889348542773,-56.33939216912448,1920,-42.8980187834632L 1920 1080 L 0 1080 Z" fill="url(#SvgjsLinearGradient1532)"></path><path d="M0,-444.4526348418427C57.782066638581604,-431.3110486987973,239.2167002568852,-391.0482685501554,346.69239983148964,-365.60311798357026C454.1680994060941,-340.1579674169851,543.9380006900054,-327.6198264263784,644.8541974476266,-291.78173144233176C745.7703942052477,-255.94363645828514,848.9738543361753,-191.68725862057858,952.1895803772165,-150.57454807929045C1055.4053064182579,-109.46183753800233,1156.5686207697956,-80.5495779377325,1264.148553693874,-45.10546819460305C1371.7284866179523,-9.661358451473596,1488.3606035373325,36.26701910640716,1597.669177921687,62.09011037948626C1706.9777523060413,87.91320165256536,1866.278196320281,101.87591793314067,1920,109.83307944387155L 1920 1080 L 0 1080 Z" fill="url(#SvgjsLinearGradient1533)"></path><path d="M0,-313.7131356817048C61.66970414385361,-299.20546830098124,237.58002348923125,-268.4004537615014,370.01822486312165,-226.66713139736336C502.456426237012,-184.9338090332253,660.5625756866873,-99.91464634460081,794.6292082433424,-63.3132014968764C928.6958407999975,-26.711756649151994,1049.0267663244745,-40.80548639013327,1174.418020203052,-7.058462311016918C1299.8092740816296,26.688561768099433,1422.713068215316,95.51615044436491,1546.9767315148074,139.1689429778217C1671.2403948142987,182.8217355112785,1857.8294552524678,235.57673457107347,1920,254.85829288972383L 1920 1080 L 0 1080 Z" fill="url(#SvgjsLinearGradient1534)"></path><path d="M0,-196.68278662482845C59.26416696120009,-179.10491372143628,251.33102959543993,-124.127743749472,355.58500176720054,-91.21554920447535C459.83897393896115,-58.3033546594787,528.652095680901,-25.39628311043685,625.5238330305637,0.7903806451514725C722.3955703802263,26.977044400739796,821.4988115774637,40.244457425850996,936.8154258651766,65.90443332905457C1052.1320401528894,91.56440923225814,1208.4601328498395,122.58545734631227,1317.423518756841,154.75023606437287C1426.3869046638426,186.91501478243347,1490.1663277666592,220.32241894276123,1590.5957413071856,258.89310563741816C1691.025154847712,297.46379233207506,1865.0992902178643,364.9608144664984,1920,386.17435623231444L 1920 1080 L 0 1080 Z" fill="url(#SvgjsLinearGradient1535)"></path><path d="M0,0.04129527107218678C46.703982919850034,10.960390882309127,190.5072274623451,37.70644199159409,280.2238975191002,65.55586893849383C369.9405675758553,93.40529588539357,446.1232657498675,142.65351071884834,538.3000203405308,167.1378569524706C630.476774931194,191.62220318609286,740.4259290136612,190.6978109940491,833.2844250630795,212.46194634022734C926.1429211124979,234.2260816864056,1012.4363937218034,269.6129097700227,1095.450996637041,297.72266902954016C1178.4655995522787,325.8324282890576,1248.8471543487813,350.493057028402,1331.3720425545057,381.1205018973318C1413.8969307602301,411.7479467662616,1492.4956662971379,445.47672982368584,1590.600325871387,481.48733824311876C1688.704985445636,517.4979466625517,1865.1000543118978,577.9013500521276,1920,597.1841524139294L 1920 1080 L 0 1080 Z" fill="url(#SvgjsLinearGradient1536)"></path><path d="M0,140.56642279110358C77.21175196639643,169.4184574484616,299.4333503588965,265.7987753831528,463.2705117983786,313.67863073525166C627.1076732378607,361.5584860873505,821.207485377121,376.65273425148627,983.0229686368926,427.8455549036968C1144.8384518966643,479.0383755559073,1278.000572796491,566.8106480958517,1434.163411357009,620.8355546485147C1590.3262499175269,674.8604612011778,1839.0272352261682,730.1350876244817,1920,751.994994219675L 1920 1080 L 0 1080 Z" fill="url(#SvgjsLinearGradient1537)"></path><path d="M0,225.2526913483554C51.56674773238833,238.7822472816875,197.74641752615355,272.2441516318781,309.40048639432996,306.4300269483479C421.05455526250637,340.61590226481775,562.6259117862058,398.27131736605946,669.9244132090585,430.36794324717437C777.2229146319111,462.46456912828927,847.9035673565555,464.7862423470051,953.1914949314457,499.00978223503745C1058.4794225063358,533.2333221230698,1189.1656838870342,595.3480354567472,1301.6519786583995,635.7091825753685C1414.1382734297647,676.0703296939897,1525.0512600027039,705.3003658655532,1628.1092635596374,741.1766649467653C1731.1672671165709,777.0529640279774,1871.3515439266062,832.6685917099952,1920,850.9669770626411L 1920 1080 L 0 1080 Z" fill="url(#SvgjsLinearGradient1538)"></path></svg>